<svg
  xmlns="http://www.w3.org/2000/svg"
  viewBox="136 224 222 302">

    <path
     id="mexico"
     d="M137.49,225.43l4.83,15.21l-2.25,1.26l0.25,3.02l4.25,3.27v6.05l5.25,5.04l-2.25-14.86l-3-9.83l0.75-6.8l2.5,0.25l1,2.27l-1,5.79l13,25.44v9.07l10.5,12.34l11.5,5.29l4.75-2.77l6.75,5.54l4-4.03l-1.75-4.54l5.75-1.76l1.75,1.01l1.75-1.76h2.75l5-8.82l-2.5-2.27l-9.75,2.27l-2.25,6.55l-5.75,1.01l-6.75-2.77l-3-9.57l2.27-12.07l-4.64-2.89l-2.21-11.59l-1.85-0.79l-3.38,3.43l-3.88-2.07l-1.52-7.73l-15.37-1.61l-7.94-5.97L137.49,225.43L137.49,225.43z" />

    <path
     id="guadalupe"
     d="M276.6,283.37l-1.5,0.62l0.53,1.33l1.76-1.15l-0.35-0.36L276.6,283.37L276.6,283.37z" />

    <path
     id="dominica"
     d="M279.07,284.88l-0.88,1.87l1.06,1.42l1.32-1.15L279.07,284.88L279.07,284.88z" />

    <path
     id="martinica"
     d="M282.07,290.03l-1.06,0.98l0.79,1.6l1.5-0.44L282.07,290.03L282.07,290.03z" />

    <path
     id="santa-lucia"
     d="M281.98,294.03l-0.71,1.51l1.15,1.24l1.5-0.8L281.98,294.03L281.98,294.03z" />

    <path
     id="san-vicente-y-las-granadinas"
     d="M280.57,301.31l-1.15,1.15l0.44,0.71h1.41l0.44-1.16L280.57,301.31L280.57,301.31z
     M282.07,297.85l-1.23,0.89l0.97,1.78l1.59-0.89L282.07,297.85L282.07,297.85z" />

    <path
     id="trinidad"
     d="M282.24,304.78l-1.06,0.98l-1.15,0.18v1.42l2.12,1.95l0.88-1.42l0.53-1.6l-0.18-1.33L282.24,304.78L282.24,304.78z" />

    <path
     id="puerto-rico"
     d="M271.05,281.06l-2.64-0.89l-2.12,1.33l1.06,1.24l3.61,0.53L271.05,281.06L271.05,281.06z" />

    <path
     id="borde-entre-haiti-y-republica-dominicana"
     d="M250.87,275.38l-1.67,1.71l1.91,0.78l0.28,2.39l-4.23,0.37l0.43,2.3l1.23,0.09l0.71-1.06l4.94,0.16l0.89,1.71l1.14-1.34l3.33-0.9l2.93,0.62l0.34-1.77l-5.28-3.45l-3.42-1.28L250.87,275.38L250.87,275.38z" />

    <path
     id="republica-dominicana"
     d="M263.11,280.44l-5.29-3.46l-2.5-0.85l-0.84,6l0.88,1.69l1.15-1.33l3.35-0.89l2.91,0.62L263.11,280.44L263.11,280.44z" />

    <path
     id="haiti"
     d="M250.86,275.38l3.44,0.36l-0.41,4.22l-0.34,2.22l-4.01-0.22l-0.71,1.07l-1.23-0.09l-0.44-2.31l4.23-0.35l-0.26-2.4l-1.94-0.8L250.86,275.38L250.86,275.38z" />

    <path
     id="cuba"
     d="M220.85,266.92v1.27l5.32,0.1l2.51-1.46l0.39,1.07l5.22,1.27l4.64,4.19l-1.06,1.46l0.19,1.66l3.87,0.97l3.87-1.75l1.74-1.75l-2.51-1.27l-12.95-7.6l-4.54-0.49L220.85,266.92L220.85,266.92z" />

    <path
     id="bahamas"
     d="M243.96,256.21l-1.55-0.39l-0.29-1.95l-1.64-0.58l1.06-1.07l1.93,0.68l1.45,0.88L243.96,256.21L243.96,256.21z
     M242.12,262.93l-1.74,0.97l1.64,2.34l0.87-1.17L242.12,262.93L242.12,262.93z
     M247.73,264.68l-1.84-0.1l0.19,1.17l1.35,1.95l1.16-1.27L247.73,264.68L247.73,264.68z
     M246.86,262.35l-3-1.27l-0.58-3.02l1.16-0.49l1.16,2.34l1.16,0.88L246.86,262.35L246.86,262.35z
     M239.61,259.13l-1.26-0.39l-0.1,2.43l1.55,1.56l1.06-1.56L239.61,259.13L239.61,259.13z" />

    <path
     id="jamaica"
     d="M238.93,279.59l-3.48,0.88v0.97l2.03,1.17h2.13l1.35-1.56L238.93,279.59L238.93,279.59z" />

    <path
     id="guatemala"
     d="M194.88,291.52l5.93,4.34l5.98-7.43l-1.02-1.54l-2.04-0.07v-4.35l-1.53-0.93l-4.63,1.38l1.77,4.08L194.88,291.52L194.88,291.52z" />

    <path
     id="honduras"
     d="M207.55,288.78l9.24-0.35l2.74,3.26l-1.71-0.39l-3.29,0.14l-4.3,4.04l-1.84,4.09l-1.21-0.64l-0.01-4.48l-2.66-1.78L207.55,288.78L207.55,288.78z" />

    <path
     id="el-salvador"
     d="M201.65,296.27l4.7,2.34l-0.07-3.71l-2.41-1.47L201.65,296.27L201.65,296.27z" />

    <path
     id="nicaragua"
     d="M217.74,292.11l2.19,0.44l0.07,4.49l-2.55,7.28l-6.87-0.68l-1.53-3.51l2.04-4.26l3.87-3.6L217.74,292.11L217.74,292.11z" />

    <path
     id="costa-rica"
     d="M217.38,304.98l1.39,2.72l1.13,1.5l-1.52,4.51l-2.9-2.04l-4.74-4.34v-2.87L217.38,304.98L217.38,304.98z" />

    <path
     id="panama"
     d="M220.59,309.61l-1.46,4.56l4.82,1.25l2.99,0.59l0.51-3.53l3.21-1.62l2.85,1.47l1.12,1.79l1.36-0.16l1.07-3.25l-3.56-1.47l-2.7-1.47l-2.7,1.84l-3.21,1.62l-3.28-1.32L220.59,309.61L220.59,309.61z" />

    <path
     id="colombia"
     d="M253.73,299.78l-2.06-0.21l-13.62,11.23l-1.44,3.95l-1.86,0.21l0.83,8.73l-4.75,11.65l5.16,4.37l6.61,0.42l4.54,6.66l6.6,0.21l-0.21,4.99H256l2.68-9.15l-2.48-3.12l0.62-5.82l5.16-0.42l-0.62-13.52l-11.56-3.74l-2.68-7.28L253.73,299.78L253.73,299.78z" />

    <path
     id="venezuela"
     d="M250.46,305.92l0.44,2.59l3.25,1.03l0.74-4.77l3.43-3.55l3.43,4.02l7.89,2.15l6.68-1.4l4.55,5.61l3.43,2.15l-3.76,5.73l1.26,4.34l-2.15,2.66l-2.23,1.87l-4.83-2.43l-1.11,1.12v3.46l3.53,1.68l-2.6,2.81l-2.6,2.81l-3.43-0.28l-3.45-3.79l-0.73-14.26l-11.78-4.02l-2.14-6.27L250.46,305.92L250.46,305.92z" />

    <path
     id="guyana"
     d="M285.05,314.13l7.22,6.54l-2.87,3.32l-0.23,1.97l3.77,3.89l-0.09,3.74l-6.56,2.5l-3.93-5.31l0.84-6.38l-1.68-4.75L285.05,314.13L285.05,314.13z" />

    <path
     id="suriname"
     d="M293.13,321.14l2.04,1.87l3.16-1.96l2.88,0.09l-0.37,1.12l-1.21,2.52l-0.19,6.27l-5.75,2.34l0.28-4.02l-3.71-3.46l0.19-1.78L293.13,321.14L293.13,321.14z" />

    <path
     id="guyana-francesa"
     d="M302.13,321.8l5.85,3.65l-3.06,6.08l-1.11,1.4l-3.25-1.87l0.09-6.55L302.13,321.8L302.13,321.8z" />

    <path
     id="ecuador"
     d="M230.2,335.85l-4.73,2.94l-0.34,4.36l-0.95,1.43l2.98,2.86l-1.29,1.41l0.3,3.6l5.33,1.27l8.07-9.55l-0.02-3.33l-3.87-0.25L230.2,335.85L230.2,335.85z
     M194.97,338.18l-0.62,2.75l-1.15,1.16l0.79,1.42l2.03-0.8l0.97-1.69l-0.62-1.78L194.97,338.18L194.97,338.18z" />

    <path
     id="peru"
     d="M225.03,349.52l-1.94,1.96l0.13,3.13l16.94,30.88l17.59,11.34l2.72-4.56l0.65-10.03l-1.42-6.25l-4.79-8.08l-2.85,0.91l-1.29,1.43l-5.69-6.52l1.42-7.69l6.6-4.3l-0.52-4.04l-6.72-0.26l-3.49-5.86l-1.94-0.65l0.13,3.52l-8.66,10.29l-6.47-1.56L225.03,349.52L225.03,349.52z" />

    <path
     id="bolivia"
     d="M258.71,372.79l8.23-3.59l2.72,0.26l1.81,7.56l12.54,4.17l2.07,6.39l5.17,0.65l2.2,5.47l-1.55,4.95l-8.41,0.65l-3.1,7.95l-6.6-0.13l-2.07-0.39l-3.81,3.7l-1.88-0.18l-6.47-14.99l1.79-2.68l0.63-10.6l-1.6-6.31L258.71,372.79L258.71,372.79z" />

    <path
     id="paraguay"
     d="M291.76,399.51l2.2,2.4l-0.26,5.08l6.34-0.39l4.79,6.13l-0.39,5.47l-3.1,4.69l-6.34,0.26l-0.26-2.61l1.81-4.3l-6.21-3.91h-5.17l-3.88-4.17l2.82-8.06L291.76,399.51L291.76,399.51z" />

    <path
     id="uruguay"
     d="M300.36,431.93l-2.05,2.19l0.85,11.78l6.44,1.87l8.19-8.21L300.36,431.93L300.36,431.93z" />

    <path
     id="argentina"
     d="M305.47,418.2l1.94,1.82l-7.37,10.95l-2.59,2.87l0.9,12.51l5.69,6.91l-4.78,8.34l-3.62,1.56h-4.14l1.16,6.51l-6.47,2.22l1.55,5.47l-3.88,12.38l4.79,3.91l-2.59,6.38l-4.4,6.91l2.33,4.82l-5.69,0.91l-4.66-5.73l-0.78-17.85l-7.24-30.32l2.19-10.6l-4.66-13.55l3.1-17.59l2.85-3.39l-0.7-2.57l3.66-3.34l8.16,0.56l4.56,4.87l5.27,0.09l5.4,3.3l-1.59,3.72l0.38,3.76l7.65-0.36L305.47,418.2L305.47,418.2z
     M288.92,518.79l0.26,5.73l4.4-0.39l3.75-2.48l-6.34-1.3L288.92,518.79L288.92,518.79z
     M307.95,508.18l-2.63-0.29l-2.62,1.76l1.9,2.06L307.95,508.18L307.95,508.18z
     M310.57,506.86l-0.87,2.79l-2.48,2.2l0.15,0.73l4.23-1.62l1.75-2.2L310.57,506.86L310.57,506.86z" />

    <path
     id="chile"
     d="M283.59,512.63l-3.21,3.55l-0.39,4.17l-6.21-3.52l-6.6-9.51l-1.94-3.39l2.72-3.52l-0.26-4.43l-3.1-1.3l-2.46-1.82l0.52-2.48l3.23-0.91l0.65-14.33l-5.04-2.87l-3.29-74.59l0.85-1.48l6.44,14.85l2.06,0.04l0.67,2.37l-2.74,3.32l-3.15,17.87l4.48,13.76l-2.07,10.42l7.3,30.64l0.77,17.92l5.23,6.05L283.59,512.63L283.59,512.63z
     M262.28,475.14l-1.29,1.95l0.65,3.39l1.29,0.13l0.65-4.3L262.28,475.14L262.28,475.14z M285.04,514.1l-4.27,9.38l7.37,0.78l0.13-6.25L285.04,514.1L285.04,514.1z" />

    <path
     id="brasil"
     d="M314.24,438.85l6.25-12.02l0.23-10.1l11.66-7.52h6.53l5.13-8.69l0.93-16.68l-2.1-4.46l12.36-11.28l0.47-12.45l-16.79-8.22l-20.28-6.34l-9.56-0.94l2.57-5.4l-0.7-8.22l-2.09-0.69l-3.09,6.14l-1.62,2.03l-4.16-1.84l-13.99,4.93l-4.66-5.87l0.75-6.13l-4.4,4.48l-4.86-2.62l-0.49,0.69l0.01,2.13l4.19,2.25l-6.29,6.63l-3.97-0.04l-4.02-4.09l-4.55,0.14l-0.56,4.86l2.61,3.17l-3.08,9.87l-3.6,0.28l-5.73,3.62l-1.4,7.11l4.97,5.32l0.91-1.03l3.49-0.94l2.98,5.02l8.53-3.66l3.31,0.19l2.28,8.07l12.17,3.86l2.1,6.44l5.18,0.62l2.47,6.15l-1.67,5.47l2.18,2.86l-0.32,4.26l5.84-0.55l5.35,6.76l-0.42,4.75l3.17,2.68l-7.6,11.51L314.24,438.85L314.24,438.85z" />

    <path
     id="belice"
     d="M204.56,282.4l-0.05,3.65h0.84l2.86-5.34h-1.94L204.56,282.4L204.56,282.4z" />
</svg>
